<svg width="95" height="95" viewBox="0 0 95 95" fill="none" xmlns="http://www.w3.org/2000/svg">
<g clip-path="url(#clip0_15_53)">
<path d="M45.1219 72.4929C44.8542 72.5232 44.6377 72.476 44.4709 72.4169C44.2591 72.1382 44.0245 71.3699 43.9159 70.766C43.4095 68.9007 44.0672 66.9875 44.8134 65.2716C45.1663 64.3957 45.4933 63.5093 45.8203 62.623C46.024 62.3839 46.2232 62.1419 46.4144 61.8959C46.722 62.0911 47.0826 62.202 47.4475 62.2031C47.453 62.2028 47.4585 62.2025 47.4639 62.2021C47.4752 62.207 47.4877 62.2139 47.4968 62.2199C47.8392 64.3098 48.239 65.6775 48.9022 66.7038C48.8761 66.7613 48.85 66.8187 48.8272 66.8771C48.6537 67.3642 48.687 67.9013 48.6453 68.4111C48.6628 68.6665 48.7504 68.9209 48.7221 69.1802C48.6565 69.6388 48.4258 70.0658 48.1279 70.4157C47.393 71.4076 46.3072 72.2322 45.1219 72.4929ZM36.395 68.3838C33.552 69.305 30.1757 70.0315 27.626 70.3993C26.7761 70.4974 25.9196 70.54 25.066 70.5584C25.7946 70.3383 26.5223 70.1215 27.257 69.9119C28.8449 69.4385 30.4669 69.0585 31.9981 68.4088C35.9091 66.6761 39.6249 64.5421 43.4556 62.6411C44.1201 62.3196 44.7643 61.9533 45.4248 61.62C45.603 61.5764 45.7803 61.5361 45.9548 61.4862C46.0592 61.618 46.1831 61.73 46.3182 61.8271C46.2176 61.9219 46.1146 62.0125 46.0149 62.1039C46.0458 62.0155 46.0799 61.928 46.112 61.8417C46.0267 61.9728 45.9451 62.1103 45.8611 62.2436C43.0504 64.7616 39.7393 66.6676 36.395 68.3838ZM47.373 60.5771C47.4168 60.4671 47.4618 60.3592 47.5072 60.2567C47.5362 60.3021 47.5685 60.3484 47.5988 60.3959C47.5235 60.4563 47.4495 60.5188 47.373 60.5771ZM47.8068 59.4991C47.8691 59.3135 47.9335 59.1266 47.997 58.9431C51.4945 54.3566 54.6796 49.5325 58.2809 45.033C60.2604 42.9242 62.2243 40.7934 64.0881 38.582C64.0937 38.6748 64.098 38.7655 64.1033 38.8529C64.2011 41.4681 63.7608 44.1003 62.9141 46.5717C61.631 50.0039 58.7944 54.0083 55.7106 56.7236C53.4209 58.8674 50.6293 60.4255 47.326 61.0533C47.322 61.0415 47.3188 61.0263 47.316 61.0166C47.3167 61.0276 47.3186 61.0406 47.3205 61.0536C47.3129 61.0552 47.3074 61.0555 47.2999 61.057C47.2599 61.066 47.222 61.0738 47.1862 61.0803C47.2144 61.0019 47.2413 60.9214 47.2704 60.8397C47.4245 60.7592 47.576 60.6745 47.7276 60.5898C47.7539 60.6254 47.7793 60.6645 47.8034 60.7014C47.7835 60.662 47.7636 60.6227 47.7437 60.5833C49.4042 59.6585 50.9368 58.5026 52.3055 57.1899C53.9785 55.4502 55.3599 53.4551 56.7019 51.4602C56.7261 51.4237 56.7502 51.3872 56.7743 51.3507C56.5583 51.5686 56.3403 51.7876 56.1243 52.0055C53.3423 54.8374 50.7384 57.88 47.6354 60.3663C47.6041 60.3024 47.5708 60.2398 47.5395 60.1759C47.6644 59.8835 47.771 59.6328 47.8068 59.4991ZM45.6827 60.3301C44.9934 58.2117 44.3236 55.7064 44.2477 53.8383C44.19 52.8775 44.0237 51.9144 44.2349 50.9593C44.6253 48.5 45.4119 46.1254 46.1148 43.7426C46.6495 41.9343 47.1131 40.1105 47.6211 38.295C48.0796 36.6238 48.5382 34.9525 48.9921 33.2783C49.1317 33.6864 49.2767 34.0941 49.402 34.5019C49.7407 35.6167 49.6201 35.5254 49.6938 36.6069C49.7183 37.3976 49.7658 38.1892 49.7629 38.9816C49.8379 43.827 49.4189 48.712 47.9606 53.3524C47.578 54.5731 47.2176 55.7979 46.8471 57.02C46.8511 56.9584 46.853 56.898 46.857 56.8364C46.8992 55.8236 46.9347 54.8089 46.9396 53.795C47.0659 50.8782 46.9552 47.9569 47.0341 45.0363C46.3026 48.5681 45.9769 52.196 46.1919 55.797C46.2398 56.6137 46.2602 57.4464 46.471 58.237C46.4222 58.3922 46.3747 58.5496 46.3238 58.706C46.1543 59.2783 45.9381 59.8381 45.8233 60.4268C45.7764 60.3946 45.7296 60.3623 45.6827 60.3301ZM44.929 59.822C44.732 59.1139 44.5204 58.3464 44.3651 57.73C44.2409 57.2312 44.1319 56.7293 44.0229 56.2274C44.4462 57.6013 44.9963 58.9358 45.5707 60.2535C45.355 60.1098 45.1413 59.9648 44.929 59.822ZM42.5068 50.2653C42.1533 49.2861 41.5521 48.4357 40.9393 47.609C40.0624 46.3446 39.1809 45.0771 38.07 44.0041C37.8412 43.7888 37.6061 43.5772 37.3743 43.3665C37.1022 42.5577 36.9585 41.6974 36.7482 40.8783C36.3784 39.2448 36.0196 37.6106 35.7201 35.9619C35.7774 37.8662 36.0277 39.7721 36.5628 41.6039C36.7209 42.0831 36.8651 42.5873 37.0508 43.0703C35.9792 42.1046 34.8769 41.1736 33.7552 40.2679C33.7622 39.9278 33.7669 39.6032 33.773 39.2861C33.8022 39.498 33.8259 39.7103 33.8378 39.9266C33.8569 39.5342 33.8606 39.1395 33.8273 38.7492C33.8175 38.6589 33.8044 38.5676 33.7925 38.4785C33.9415 32.4899 34.3569 30.5583 37.521 24.1224C37.8745 23.458 38.1942 22.7594 38.5768 22.1064C38.8835 22.8528 39.2929 23.6304 39.811 24.2293C40.3484 24.9302 41.0316 25.4875 41.6508 26.11C42.8678 27.3814 43.9748 28.5893 44.8534 30.028C45.8485 31.693 46.2662 33.6491 46.5261 35.5522C46.541 35.8176 46.5458 36.0803 46.5443 36.3466C46.5144 36.4514 46.4866 36.555 46.4546 36.661C45.6678 39.6175 44.7841 42.5481 44.0118 45.5103C44.1153 42.9991 44.1476 40.4868 44.1391 37.9725C44.1485 36.9419 44.1633 35.911 44.1912 34.8782C44.204 34.0885 44.2805 33.2817 44.0308 32.5165C43.9778 32.3466 43.9215 32.1757 43.8607 32.0019C43.9386 31.858 43.9962 31.7033 44.0453 31.5536C44.1852 31.0915 44.1016 30.6484 43.8519 30.304C43.8337 30.2382 43.8177 30.1712 43.8016 30.1043C43.7818 29.8107 43.4832 29.6555 43.2131 29.7013C43.1217 29.6947 43.0274 29.6927 42.937 29.7025C42.7035 29.6453 42.4752 29.6754 42.286 29.7733C42.0924 29.6874 41.8593 29.6554 41.7102 29.8375C41.2363 30.1026 41.0872 30.6857 41.1672 31.196C41.2915 31.9347 41.9873 32.5187 42.7233 32.6049C42.7482 32.873 42.7506 33.1511 42.7324 33.4864C42.7193 34.5644 42.7381 35.6437 42.7863 36.7201C42.8398 38.3244 43.0377 40.5994 43.1752 41.8502C43.3 43.6365 43.4487 45.4203 43.6062 47.2046C43.4348 48.0181 43.2977 48.8372 43.2025 49.6604C42.8376 48.9306 42.5566 48.1552 42.3728 47.3575C42.1792 46.3227 42.0693 45.2762 41.7771 44.2615C41.6474 43.2689 41.7643 42.2582 41.7295 41.2587C41.7244 40.0416 41.695 38.8216 41.6756 37.6042C41.4117 39.5782 41.1618 41.5667 41.1094 43.5598C41.1166 44.1007 41.3221 44.6033 41.4324 45.1271C41.7147 46.7998 42.1915 48.462 43.1785 49.8634C43.1414 50.1955 43.1141 50.5248 43.0959 50.8601C42.251 48.4869 40.9838 46.2334 40.5995 43.7186C40.3915 41.4409 41.0721 39.088 40.3687 36.862C40.3395 36.7771 40.3167 36.6887 40.2959 36.599C40.4127 36.5174 40.5153 36.4017 40.5962 36.2336C40.7418 35.9575 40.6994 35.6346 40.6216 35.3434C40.4434 34.5651 39.8582 33.8693 39.0625 33.6848C38.5924 33.5749 38.2574 34.0367 38.0019 34.3621C37.5877 34.9655 37.9593 35.6971 38.5023 36.0897C38.5875 36.2325 38.7474 36.3577 38.9126 36.3894C38.9963 36.4512 39.0818 36.5063 39.169 36.5548C39.2727 36.9496 39.384 37.3429 39.4161 37.7508C39.4579 38.283 39.4425 40.1249 39.4787 41.0925C39.3368 44.7159 41.5694 47.7564 43.0956 50.8743C43.0894 50.9711 43.0844 51.07 43.0793 51.169C43.1472 51.898 43.2491 52.6271 43.3715 53.3528C43.1475 52.3045 42.9083 51.2592 42.5068 50.2653ZM54.8909 37.2241C54.7301 37.0288 54.5232 36.8857 54.2753 36.8819C54.5096 36.7495 54.7795 36.684 54.9446 36.7694C55.0212 36.9314 54.9889 37.0856 54.8909 37.2241ZM50.0643 29.8719C50.1499 29.7462 50.24 29.6235 50.3347 29.5039C50.9033 28.8255 51.5659 28.2367 52.2055 27.6274C53.351 26.3928 54.7677 25.7697 56.4384 25.0339C57.2897 24.6496 58.1095 24.1961 58.8799 23.6666C58.8925 23.7667 58.9029 23.868 58.9188 23.9689C59.0396 26.2179 60.4616 28.0205 60.9315 29.9888C61.4547 31.8049 61.4171 33.0947 61.391 34.9964C61.3991 35.8813 61.4987 36.7727 61.4016 37.6562C61.2886 38.3654 61.1169 39.0661 60.8927 39.749C60.8312 39.8185 60.7709 39.8901 60.7081 39.9574C59.3618 41.4802 57.9684 42.9654 56.6093 44.4758C54.3818 47.4366 52.3567 50.5573 50.5354 53.7863C49.8686 54.9451 49.2121 56.1121 48.5611 57.2787C49.2626 55.182 49.9236 53.0692 50.3891 50.911C51.3022 49.3276 52.1125 47.6934 52.8708 46.0327C53.4046 44.849 53.989 43.6502 54.1385 42.3438C54.2834 41.2152 54.4182 40.084 54.4847 38.947C54.7496 38.8872 54.9825 38.733 55.1278 38.4514C55.251 38.2589 55.2846 38.0333 55.2105 37.8219C55.3559 37.6334 55.446 37.4176 55.4274 37.1799C55.3933 36.8324 55.0817 36.5519 54.7516 36.4742C54.4994 36.4532 54.2652 36.5856 54.0855 36.7684C54.005 36.6878 53.9086 36.6136 53.7942 36.5525C53.2306 36.217 52.8805 36.4276 52.7647 37.0537C52.6464 37.5484 52.656 38.1275 53.0623 38.4888C53.1044 38.5323 53.1495 38.5713 53.1966 38.609C53.1798 38.839 53.1617 39.0669 53.1471 39.2815C53.0316 40.5146 53.0663 41.7683 52.8093 42.9814C52.1167 45.5728 51.2738 48.1239 50.4384 50.6736C50.4976 50.3993 50.5513 50.1255 50.6016 49.8507C51.0962 46.9358 51.2662 43.9824 51.2488 41.027C51.8771 38.6422 52.2752 36.201 52.4396 33.7366C51.8865 35.6939 51.4825 37.6895 51.2308 39.7044C51.2044 38.6803 51.1616 37.6573 51.1003 36.6364C51.0841 35.7082 50.6923 34.8583 50.3909 33.9987C50.1306 33.3864 49.7531 31.9353 49.7795 31.7365C49.6754 31.1159 49.9638 30.4806 50.0643 29.8719ZM63.3673 36.7416C62.9875 37.2236 62.6081 37.7109 62.2195 38.1923C62.2463 38.0921 62.2698 37.991 62.2921 37.8877C62.6447 37.5006 63.0044 37.1206 63.3673 36.7416ZM67.9308 32.4265C69.3049 31.2209 71.0477 29.5679 72.2522 28.7143C72.8392 28.3076 73.4531 27.9475 74.0931 27.6374C74.0914 27.6638 74.0918 27.6889 74.0926 27.7196C73.9763 29.6902 73.6905 31.6458 73.3879 33.5969C72.9768 35.9128 72.6366 38.2585 71.8286 40.4788C71.3237 41.9621 70.0296 43.8248 68.854 45.2519C68.6308 45.5305 68.417 45.8206 68.1983 46.1022C67.0208 46.7481 65.8714 47.4428 64.7494 48.1753C64.5244 48.3334 64.3089 48.5031 64.1003 48.68C64.6507 47.4613 65.084 46.1916 65.3512 44.8737C67.1627 42.3762 68.2314 39.3699 69.13 36.4308C68.2797 38.1475 67.4011 39.8493 66.5758 41.5798C66.2493 42.3105 65.906 43.0368 65.5424 43.7523C65.8268 41.8625 65.9549 39.9076 65.4727 38.0453C65.343 37.4 64.9258 36.819 64.3097 36.5591C64.0841 36.4521 63.8002 36.3957 63.5799 36.5229C64.967 35.0951 66.418 33.7292 67.9308 32.4265ZM64.9893 49.5251C66.0382 48.7982 67.2179 48.2978 68.3563 47.7309C71.1539 46.271 74.0994 45.1409 77.1375 44.2934C78.0396 44.0409 79.0166 43.6689 79.8601 43.4276C79.628 44.5811 79.208 45.7076 78.8149 46.8073C78.1672 48.4492 76.5413 51.2096 75.2215 53.0278C73.9295 54.943 72.4722 56.7333 70.7209 58.2443C68.5378 60.3379 66.7008 61.9745 63.9919 63.2307C60.1332 65.049 55.7693 64.8573 51.5398 63.5825C50.2503 63.203 48.9642 62.7707 47.7433 62.2018C49.5691 62.0232 51.4137 62.2291 53.22 61.8358C55.8099 61.4448 58.205 60.3444 60.6195 59.3853C60.8172 59.3022 61.0134 59.2116 61.2099 59.1263C60.9984 59.1807 60.786 59.2383 60.5724 59.2939C57.6307 59.9954 54.7674 60.9989 51.7887 61.5579C50.8652 61.7635 49.918 61.8105 48.982 61.9357C49.2275 61.8815 49.4685 61.8243 49.7115 61.7659C51.9047 61.2453 53.8878 60.2189 55.6836 58.9025C57.4656 58.3594 59.2679 57.8611 60.9651 57.093C62.5573 56.4364 64.1819 55.8261 65.6431 54.9034C67.5245 53.8624 69.0911 52.3591 70.728 50.9876C68.8391 52.1233 67.0594 53.4531 65.0537 54.3766C63.5755 55.1623 61.9898 55.7079 60.47 56.4018C59.2738 57.0105 58.0319 57.5157 56.7974 58.0335C58.3023 56.7806 59.6665 55.3378 60.8997 53.8491C61.4584 53.134 61.9924 52.3908 62.4865 51.6225C63.2847 50.8821 64.0813 50.1341 64.9893 49.5251ZM50.5298 65.8884C53.7955 68.5951 57.8834 70.2312 62.0005 71.1302C63.0547 71.3321 64.1221 71.4785 65.1907 71.5732C62.3644 71.6234 59.2864 71.1496 56.5899 70.3143C54.799 69.795 52.858 68.9132 50.9997 68.0572C49.0995 67.1971 48.2957 64.6309 47.6742 62.3462C48.6378 63.5212 49.3653 64.8888 50.5298 65.8884ZM44.6654 73.2479C44.0769 74.6157 44.2998 75.0801 44.7675 73.2878C45.3405 73.4879 45.9848 73.4689 46.5244 73.1659C47.8662 72.555 49.1683 70.9899 49.2301 69.4828C49.2251 69.1609 49.0781 68.8673 49.0145 68.5566C48.9783 68.0438 48.8586 67.5283 48.9033 67.0139C48.9127 66.9322 48.9308 66.8511 48.9489 66.7701C50.0362 68.3989 51.8213 69.1672 55.1829 70.6606C58.962 72.2265 63.0869 72.8895 67.1681 72.6796C68.0245 72.5975 68.8846 72.4878 69.7197 72.2711C69.8442 72.2275 70.026 72.2243 70.0446 72.061C70.0503 71.973 70.029 71.8921 69.9838 71.8137C69.1603 70.6172 67.5279 70.6955 66.233 70.6099C64.8784 70.5334 63.6651 70.4375 62.4 70.2274C58.3613 69.5571 53.3099 67.8616 50.2421 65.1847C49.3406 64.3128 48.6209 63.2767 47.7598 62.3674C49.1841 63.1662 50.7137 63.7855 52.2491 64.3366C56.2151 65.7663 60.7673 66.3379 64.7631 64.7229C67.5917 63.5614 69.968 61.602 72.152 59.5051C73.8227 58.0745 75.2755 56.4281 76.5188 54.6144C77.7886 52.8759 78.9727 51.0626 79.9149 49.1235C80.5678 47.7891 81.036 46.3693 81.4167 44.9351C81.5457 44.2535 81.8418 43.5092 81.5494 42.8364C80.5303 41.0468 78.9121 42.0545 77.433 42.5159C75.2275 43.2498 72.9633 43.8284 70.8302 44.7662C70.5989 44.8744 70.3667 44.9858 70.1366 45.0961C73.0923 42.1639 73.9314 39.3664 74.7264 35.1032C75.0244 33.5502 75.2325 31.9784 75.3823 30.4035C75.4904 29.2651 75.6426 28.0956 75.3885 26.9657C75.2199 26.4926 74.7778 26.1378 74.3036 25.9964C74.026 25.9166 73.7751 26.118 73.5255 26.214C71.3116 27.1731 69.6349 28.9602 68.0187 30.6954C65.9465 32.8491 64.0285 35.0693 62.3548 37.5267C62.4429 36.9308 62.4653 36.3191 62.5161 35.7222C62.6753 34.3593 62.8579 32.983 62.6073 31.6196C62.4435 30.4065 62.0583 29.2451 61.5458 28.1374C61.1846 27.2868 60.8569 26.7728 60.6739 25.9521C60.4797 25.2 60.2972 23.7832 60.273 23.4723C60.2172 22.8522 60.3158 22.7246 60.1525 22.3049C59.8961 21.8853 59.4631 21.5168 58.9584 21.4693C58.8361 21.458 58.7542 21.5363 58.6723 21.6146C58.116 22.2408 57.7707 22.347 57.2147 22.7782C55.8833 23.6909 54.3238 24.1987 52.9737 25.0742C52.3194 25.4915 51.7361 25.9977 51.23 26.5836C50.6275 27.2619 49.9818 27.9143 49.4633 28.6599C49.3265 28.5892 49.1788 28.5389 49.031 28.5225C48.8098 28.5062 48.7699 28.7552 48.6927 28.91C48.0215 30.8536 47.5067 32.8481 46.9662 34.8322C46.9397 34.5368 46.9077 34.2418 46.8715 33.9492C46.7055 32.7713 46.4326 31.5845 45.9015 30.5129C44.8176 28.4642 43.2671 26.6934 41.6084 25.0923C40.8534 24.3618 40.3366 23.731 39.8899 22.6587C39.6419 22.1608 39.5856 21.6426 39.2709 21.073C39.1092 20.8077 38.8584 20.608 38.5985 20.4417C38.8632 20.5968 38.2358 20.1852 38.0379 20.2288C37.7898 20.2393 37.6396 20.5124 37.5091 20.6923C37.195 21.2097 36.9033 21.7368 36.6208 22.2698C35.2534 24.9544 34.0388 27.7766 33.4531 30.744C33.1748 32.4778 33.1665 34.2195 33.2677 35.9601C33.1366 35.5472 32.9806 35.1402 32.7884 34.7485C32.5826 34.3872 32.2673 34.154 32.0618 33.7982C31.6916 33.2155 31.1817 32.3717 30.7156 31.6524C30.1223 30.5856 29.4782 29.5482 28.92 28.464C28.1117 26.6629 27.3143 24.8414 26.2245 23.1886C26.15 22.952 24.8167 21.4059 24.2217 22.6108C23.6616 23.9397 23.2258 25.3322 22.9414 26.7475C22.725 28.7647 22.5202 30.7921 22.3645 32.8166C22.2713 34.5141 22.483 36.2162 22.8163 37.8793C23.2884 40.1401 24.1877 42.2897 25.2208 44.348C26.1912 46.3126 27.3196 48.1887 28.7311 49.8704C27.5722 48.2349 26.6827 46.4496 25.9336 44.5945C24.581 41.4837 23.8005 38.1019 23.7941 35.0385C23.8512 32.5937 24.1841 30.1619 24.3777 27.7286C24.5698 26.6574 24.8715 25.6049 25.2174 24.575C25.3842 24.1595 25.4108 23.9267 25.5298 23.6829C25.7906 24.1198 26.0744 24.6309 26.3337 25.0997C26.8853 26.1481 27.3828 27.225 27.9121 28.2835C28.7723 29.7637 29.6762 31.2217 30.6705 32.6161C31.1452 33.2965 31.5829 34.0154 32.19 34.5827C32.6056 35.2437 32.8922 35.9848 33.1361 36.7252C33.2213 36.9951 33.3065 37.265 33.3854 37.5386C33.4646 38.4192 33.5592 39.3022 33.6493 40.1822C33.3534 39.9436 33.0574 39.705 32.7572 39.4687C32.2296 39.0588 31.5697 38.3412 30.9556 37.6395C30.4289 36.9523 28.4865 34.5125 27.5175 34.8544C27.3756 34.9364 27.4295 35.1227 27.4902 35.2571C27.4882 35.2781 27.5645 35.5474 27.5578 35.5993C27.5949 35.8349 27.617 36.0735 27.6444 36.3119C27.8456 37.6925 27.8 38.6847 27.8148 40.2464C27.8859 42.5805 27.8766 44.9272 28.1812 47.2451C28.4783 48.8161 29.2037 50.2782 29.8903 51.7119C30.9228 53.7253 32.1816 55.6561 33.802 57.2398C33.6916 57.1905 33.5804 57.1446 33.47 57.0954C31.2279 56.2152 29.1587 55.0037 27.1951 53.6181C25.0594 52.3207 22.9977 50.5597 20.7513 48.9337C22.8629 50.742 24.8886 52.6707 27.2657 54.1366C28.3605 54.8686 29.4749 55.5808 30.6609 56.1528C31.7239 56.6292 32.8268 57.0035 33.9345 57.3666C34.2355 57.6532 34.548 57.9303 34.8738 58.1912C36.0923 59.1766 37.4777 59.8397 38.941 60.2855C37.9316 60.1368 36.9285 59.9647 35.9343 59.7395C33.772 59.4967 31.5513 59.0306 29.7119 57.9236C27.8773 56.6048 25.8399 55.2281 23.8428 54.0144C25.0941 54.9441 26.372 55.8415 27.6121 56.7862C28.6527 57.6003 29.6571 58.489 30.8764 59.0305C32.5913 59.8338 34.4881 60.1988 36.3697 60.293C37.6525 60.5239 38.9565 60.6352 40.26 60.6282C41.7811 60.9588 43.3596 61.0952 44.8976 61.1421C41.5205 60.6687 37.4499 59.723 35.2424 57.6508C33.394 55.9559 32.2808 54.0229 31.1227 51.6697C30.3635 50.0661 29.7008 48.6101 29.6113 46.7724C29.4773 45.1412 29.3879 42.3742 29.3484 40.2563C29.3889 39.123 29.2753 37.9968 29.1159 36.8744C29.1052 36.8071 29.098 36.7407 29.0895 36.6722C29.6913 37.333 30.4151 38.2933 31.1526 39.0226C31.9081 39.8177 32.8032 40.4533 33.6593 41.1339C35.1097 42.4231 36.1972 43.2355 37.3784 44.4204C38.2812 45.3141 38.9364 46.2434 39.7567 47.3853C40.3155 48.133 40.8555 48.7504 41.2261 49.539C41.7516 50.5715 42.0593 51.6817 42.3934 52.7936C42.6908 53.8419 43.0603 54.8683 43.3632 55.9164C43.759 57.1988 44.2211 58.4344 44.6926 59.6619C43.0017 58.5285 41.3648 57.4542 39.723 56.2444C38.5302 55.3035 37.5121 53.8043 36.6323 52.3832C36.2936 51.7965 36.0229 51.1761 35.7087 50.5781C35.7736 50.7638 35.8333 50.9552 35.8939 51.1433C36.5326 53.1497 37.6646 55.0662 39.2417 56.4771C40.9734 57.8525 42.8971 58.9588 44.8341 60.0293C45.0004 60.4642 45.171 60.8967 45.3362 61.3294C45.2592 61.0152 45.143 60.5937 45.0144 60.1313C45.2343 60.2529 45.455 60.3712 45.6749 60.4928C45.7068 60.5675 45.7375 60.6402 45.7715 60.7138C45.7456 60.9038 45.7416 61.0925 45.81 61.2648C45.5447 61.3531 45.2775 61.448 45.0149 61.546C43.7975 61.6924 42.5765 61.7592 41.3474 61.7288C40.0016 61.7066 38.6507 61.7296 37.3116 61.5821C34.077 61.0179 30.8837 60.1927 27.9058 59.1048C24.2263 57.8288 20.8347 56.4205 18.0529 54.0726C17.4223 53.4793 16.1808 52.0186 15.4743 51.1274C15.1466 50.6529 14.8459 49.7505 14.6004 48.9829C14.134 47.7299 13.8412 46.4304 13.5897 45.124C13.4788 44.4085 13.0839 43.343 12.9274 42.7245C13.0173 42.763 13.1052 42.8026 13.1921 42.8456C13.564 43.0348 14.4655 43.6326 15.059 43.917C16.5683 44.6186 18.1831 45.0871 19.8035 45.4479C21.5164 45.7976 23.2491 46.2404 24.7537 47.1538C26.559 48.4415 28.028 50.0956 29.6153 51.6221C28.7822 50.7221 28.0117 49.769 27.1921 48.8583C26.5109 48.1332 25.7472 47.4953 24.9959 46.8446C22.3847 44.9292 19.0263 44.6935 16.1342 43.539C15.1643 43.1896 14.5076 42.8006 13.6269 42.2387C13.2022 41.9728 12.7564 41.7387 12.2896 41.5564C12.0881 41.4863 11.8858 41.3461 11.6661 41.391C11.2252 41.4394 11.6587 42.4741 11.7015 42.7488C12.1172 43.9237 12.2229 45.1731 12.5068 46.379C12.9757 47.9298 13.361 49.6391 14.2166 51.0232C14.6322 51.6305 15.156 52.1415 15.4741 52.5312C16.0316 53.1836 16.5724 53.8514 17.2088 54.4301C19.9939 56.8523 23.378 58.4824 26.8409 59.6913C30.495 61.0751 34.3223 62.0935 38.2259 62.3929C40.1771 62.3678 42.1452 62.2595 44.0695 61.9139C43.5119 62.1369 42.9557 62.3621 42.3914 62.5636C38.5151 64.0334 34.7857 65.8505 30.9541 67.4272C28.0919 68.4668 25.1088 69.1357 22.2059 70.0463C21.7978 70.1661 21.3882 70.2784 20.9794 70.3873C20.6395 70.5666 21.1101 71.1224 21.2879 71.2739C21.7038 71.6664 22.2842 71.7521 22.8328 71.7093C23.3571 71.7173 23.8796 71.732 24.4029 71.7433C26.6535 71.777 28.9052 71.6659 31.1088 71.1731C33.3678 70.7811 35.6318 70.2168 37.719 69.2631C40.3996 67.5714 43.0151 65.6886 45.1698 63.36C44.9265 63.7603 44.6844 64.1628 44.4423 64.5652C43.62 65.8901 42.7677 67.3 42.7059 68.9002C42.7179 70.2122 42.9083 71.6867 43.8328 72.6864C44.0624 72.9323 44.3533 73.1231 44.6654 73.2479Z" fill="#030404"/>
<path d="M57.0752 33.0145C57.2158 33.0576 57.2108 33.1565 57.1618 33.2526C57.0889 33.1704 57.0088 33.0952 56.9142 33.034C56.9214 33.027 56.9278 33.0234 56.935 33.0164C56.982 33.0146 57.0299 33.0096 57.0752 33.0145ZM57.3571 32.8376C57.3725 32.8739 57.3832 32.9073 57.3885 32.9409C57.3885 32.9946 57.3769 33.0578 57.362 33.12C57.2997 33.0317 57.2036 32.963 57.1015 32.9231C57.1838 32.8897 57.2699 32.8626 57.3571 32.8376ZM56.282 32.8342C56.1764 32.8274 56.0751 32.8379 56.0061 32.8749C55.9134 32.9199 55.9474 33.0471 55.9217 33.1298C55.7788 33.6161 55.9813 34.1234 56.3381 34.4625C56.4564 34.589 56.5787 34.6737 56.7027 34.732C56.704 34.7539 56.7074 34.7745 56.7088 34.7963C56.8226 35.8349 56.5629 36.8575 56.4006 37.8775C55.7737 42.3289 53.3731 45.9489 51.0234 49.8133C53.9643 46.6158 56.9806 43.1233 57.6686 38.6846C57.9219 37.3183 58.1477 35.8945 57.7494 34.5345C58.046 34.2559 58.233 33.8118 58.1882 33.3576C58.1445 33.0665 57.9441 32.832 57.779 32.5997C57.6644 32.4061 57.417 32.0998 57.1199 32.1527C56.8667 32.3159 56.539 32.3893 56.3548 32.6425C56.3211 32.7015 56.2999 32.7674 56.282 32.8342Z" fill="#030404"/>
</g>
<defs>
<clipPath id="clip0_15_53">
<rect width="69.1484" height="69.1484" fill="white" transform="translate(0 34.5742) rotate(-30)"/>
</clipPath>
</defs>
</svg>
